<svg viewBox="0 0 960 720" fill="none" stroke-linecap="square" stroke-miterlimit="10" xmlns="http://www.w3.org/2000/svg"><clipPath id="a"><path d="M0 0h960v720H0V0z"/></clipPath><g clip-path="url(#a)"><path fill="none" d="M0 0h960v720H0z"/><path fill="none" d="M65.165 25.165h829.67v669.67H65.165z"/><path stroke="#000" stroke-linejoin="round" stroke-linecap="butt" d="M65.165 25.165h829.67v669.67H65.165z"/><path fill="#cfe2f3" d="M200.787 360c0-154.205 125.008-279.213 279.213-279.213A279.213 279.213 0 0 1 759.213 360c0 154.205-125.008 279.213-279.213 279.213-154.205 0-279.213-125.008-279.213-279.213z" fill-rule="evenodd"/><path stroke="#000" stroke-linejoin="round" stroke-linecap="butt" d="M200.787 360h0c0-154.205 125.008-279.213 279.213-279.213h0A279.213 279.213 0 0 1 759.213 360h0c0 154.205-125.008 279.213-279.213 279.213h0c-154.205 0-279.213-125.008-279.213-279.213z"/><path fill="#f4cccc" d="M312.93 360c0-92.27 74.8-167.07 167.07-167.07A167.071 167.071 0 0 1 647.07 360c0 92.27-74.8 167.07-167.07 167.07S312.93 452.27 312.93 360z" fill-rule="evenodd"/><path stroke="#000" stroke-linejoin="round" stroke-linecap="butt" d="M312.93 360h0c0-92.27 74.8-167.07 167.07-167.07h0A167.071 167.071 0 0 1 647.07 360h0c0 92.27-74.8 167.07-167.07 167.07h0c-92.27 0-167.07-74.8-167.07-167.07z"/><path fill="none" d="M598.137 241.863l-117.89 118.362"/><path stroke="#000" stroke-linejoin="round" stroke-linecap="butt" d="M598.137 241.863l-117.89 118.362"/><path fill="none" d="M759.213 360l-278.961-.693"/><path stroke="#000" stroke-linejoin="round" stroke-linecap="butt" d="M759.213 360l-278.961-.693"/><path fill="none" d="M510.819 270.84h39.559v43.559h-39.56z"/><path fill="#000" d="M521.038 297.76v-9.672h1.468v1.469q.563-1.031 1.032-1.36.484-.328 1.062-.328.828 0 1.688.532l-.563 1.515q-.61-.36-1.203-.36-.547 0-.969.329-.422.328-.61.89-.28.876-.28 1.922v5.063h-1.625z"/><path fill="none" d="M679.627 316.667h48.725v43.559h-48.725z"/><path fill="#000" d="M696.174 340.04l1.61.219q-.266 1.656-1.36 2.609-1.078.937-2.672.937-1.984 0-3.187-1.296-1.203-1.297-1.203-3.72 0-1.577.515-2.75.516-1.171 1.578-1.75 1.063-.593 2.313-.593 1.578 0 2.578.797 1 .797 1.281 2.266l-1.593.234q-.235-.969-.813-1.453-.578-.5-1.39-.5-1.235 0-2.016.89-.781.891-.781 2.813 0 1.953.75 2.844.75.875 1.953.875.968 0 1.61-.594.655-.594.827-1.828zm3.953-2.25v-1.875h1.86v1.875h-1.86zm5.26 5.797v-9.672h1.469v1.469q.562-1.032 1.03-1.36.485-.328 1.063-.328.828 0 1.688.531l-.563 1.516q-.609-.36-1.203-.36-.547 0-.969.329-.421.328-.609.89-.281.875-.281 1.922v5.063h-1.625z"/><path fill="none" d="M453.11 337.874h39.56v43.56h-39.56z"/><path fill="#000" d="M463.345 368.497v-13.375h1.484v1.25q.531-.734 1.187-1.094.672-.375 1.625-.375 1.235 0 2.172.641.953.625 1.438 1.797.484 1.156.484 2.547 0 1.484-.531 2.672-.531 1.187-1.547 1.828-1.016.625-2.14.625-.813 0-1.47-.344-.656-.344-1.062-.875v4.703h-1.64zm1.484-8.484q0 1.86.75 2.765.766.891 1.828.891 1.094 0 1.875-.922.781-.937.781-2.875 0-1.844-.765-2.765-.75-.922-1.813-.922-1.047 0-1.86.984-.796.969-.796 2.844z"/><path fill="none" d="M65.165 25.165H582.93v60.41H65.165z"/><path fill="#000" d="M84.368 38.726h1.766v7.719q0 2.015-.453 3.203-.453 1.187-1.64 1.937-1.188.735-3.126.735-1.875 0-3.078-.64-1.187-.657-1.703-1.876-.5-1.234-.5-3.36v-7.718H77.4v7.719q0 1.734.312 2.562.328.813 1.11 1.266.796.453 1.937.453 1.953 0 2.781-.89.828-.891.828-3.391v-7.719z"/></g></svg>