<svg width="170pt" height="169pt" viewBox="0 0 170 168.71" xmlns="http://www.w3.org/2000/svg"><g class="graph"><g class="node" transform="translate(4 164.708)"><ellipse fill="none" stroke="#000" cx="99" cy="-80.354" rx="27" ry="18"/><text text-anchor="middle" x="99" y="-76.154" font-family="Times,serif" font-size="14">X1</text></g><g class="node" transform="translate(4 164.708)"><ellipse fill="none" stroke="#000" cx="135" cy="-142.708" rx="27" ry="18"/><text text-anchor="middle" x="135" y="-138.508" font-family="Times,serif" font-size="14">X2</text></g><g class="edge" stroke="#000"><path fill="none" d="M112.837 67.316l11.322-19.61"/><path d="M121.144 45.928l8.03-6.91-1.968 10.41-6.062-3.5z"/></g><g class="node" transform="translate(4 164.708)"><ellipse fill="none" stroke="#000" cx="27" cy="-80.354" rx="27" ry="18"/><text text-anchor="middle" x="27" y="-76.154" font-family="Times,serif" font-size="14">X3</text></g><g class="edge" stroke="#000"><path fill="none" d="M75.78 84.354H68.4"/><path d="M68.259 87.854l-10-3.5 10-3.5v7z"/></g><g class="node" transform="translate(4 164.708)"><ellipse fill="none" stroke="#000" cx="135" cy="-18" rx="27" ry="18"/><text text-anchor="middle" x="135" y="-13.8" font-family="Times,serif" font-size="14">X4</text></g><g class="edge" stroke="#000"><path fill="none" d="M112.837 101.393l11.322 19.609"/><path d="M127.206 119.28l1.969 10.41-8.031-6.91 6.062-3.5z"/></g><g class="edge" stroke="#000"><path fill="none" d="M118.432 33.875l-58.09 33.538"/><path d="M61.902 70.554l-10.41 1.97 6.91-8.032 3.5 6.062z"/></g><g class="edge" stroke="#000"><path fill="none" d="M139 40.134v78.151"/><path d="M142.5 118.553l-3.5 10-3.5-10h7z"/></g><g class="edge" stroke="#000"><path fill="none" d="M51.568 96.229l58.09 33.538"/><path d="M111.598 126.846l6.91 8.031-10.41-1.969 3.5-6.062z"/></g></g></svg>