<svg width="296" height="272" viewBox="0 0 222.43 204.43" xmlns="http://www.w3.org/2000/svg"><g class="graph"><g class="node" transform="translate(4 200.428)"><ellipse fill="none" stroke="#000" cx="107.214" cy="-18" rx="27" ry="18"/><text text-anchor="middle" x="107.214" y="-13.8" font-family="Times,serif" font-size="14">X1</text></g><g class="node" transform="translate(4 200.428)"><ellipse fill="none" stroke="#000" cx="27" cy="-98.214" rx="27" ry="18"/><text text-anchor="middle" x="27" y="-94.014" font-family="Times,serif" font-size="14">X2</text></g><g class="edge" stroke="#000"><path fill="none" d="M96.126 167.34L53.2 124.414"/><path d="M50.616 126.78l-4.596-9.546 9.546 4.596-4.95 4.95z"/></g><g class="node" transform="translate(4 200.428)"><ellipse fill="none" stroke="#000" cx="187.428" cy="-98.214" rx="27" ry="18"/><text text-anchor="middle" x="187.428" y="-94.014" font-family="Times,serif" font-size="14">X4</text></g><g class="edge" stroke="#000"><path fill="none" d="M126.302 167.34l42.926-42.926"/><path d="M166.862 121.83l9.546-4.596-4.596 9.546-4.95-4.95z"/></g><g class="edge" stroke="#000"><path fill="none" d="M58.215 102.214h95.86"/><path d="M154.348 98.714l10 3.5-10 3.5v-7z"/></g><g class="node" transform="translate(4 200.428)"><ellipse fill="none" stroke="#000" cx="107.214" cy="-178.428" rx="27" ry="18"/><text text-anchor="middle" x="107.214" y="-174.228" font-family="Times,serif" font-size="14">X3</text></g><g class="edge" stroke="#000"><path fill="none" d="M46.088 87.126L89.014 44.2"/><path d="M86.648 41.616l9.546-4.596-4.596 9.546-4.95-4.95z"/></g><g class="edge" stroke="#000"><path fill="none" d="M126.302 37.088l42.926 42.926"/><path d="M171.812 77.648l4.596 9.546-9.546-4.596 4.95-4.95z"/></g></g></svg>