<svg width="152pt" height="148pt" viewBox="0 0 152.24 148.2" xmlns="http://www.w3.org/2000/svg"><g class="graph"><g class="node" transform="translate(4 144.201)"><ellipse fill="none" stroke="#000" cx="27" cy="-18" rx="27" ry="18"/><text text-anchor="middle" x="27" y="-13.8" font-family="Times,serif" font-size="14">X1</text></g><g class="node" transform="translate(4 144.201)"><ellipse fill="none" stroke="#000" cx="27" cy="-122.201" rx="27" ry="18"/><text text-anchor="middle" x="27" y="-118.001" font-family="Times,serif" font-size="14">X2</text></g><g class="edge" stroke="#000"><path fill="none" d="M31 108.051V50.438"/><path d="M27.5 50.292l3.5-10 3.5 10h-7z"/></g><g class="node" transform="translate(4 144.201)"><ellipse fill="none" stroke="#000" cx="117.241" cy="-70.101" rx="27" ry="18"/><text text-anchor="middle" x="117.241" y="-65.901" font-family="Times,serif" font-size="14">X3</text></g><g class="edge" stroke="#000"><path fill="none" d="M51.477 33.822l40.32 23.28"/><path d="M93.622 54.113l6.91 8.031-10.41-1.968 3.5-6.063z"/></g><g class="edge" stroke="#000"><path fill="none" d="M100.764 85.923l-40.32 23.278"/><path d="M62.119 112.276l-10.41 1.969 6.91-8.031 3.5 6.062z"/></g></g></svg>