<svg width="134pt" height="188pt" viewBox="0 0 134 188" xmlns="http://www.w3.org/2000/svg"><g class="graph"><g class="node" transform="translate(4 184)"><ellipse fill="none" stroke="#000" cx="27" cy="-162" rx="27" ry="18"/><text text-anchor="middle" x="27" y="-157.8" font-family="Times,serif" font-size="14">X1</text></g><g class="node" transform="translate(4 184)"><ellipse fill="none" stroke="#000" cx="27" cy="-90" rx="27" ry="18"/><text text-anchor="middle" x="27" y="-85.8" font-family="Times,serif" font-size="14">X2</text></g><g class="edge" stroke="#000"><path fill="none" d="M31 40.169v25.414"/><path d="M34.5 65.587l-3.5 10-3.5-10h7z"/></g><g class="node" transform="translate(4 184)"><ellipse fill="none" stroke="#000" cx="63" cy="-18" rx="27" ry="18"/><text text-anchor="middle" x="63" y="-13.8" font-family="Times,serif" font-size="14">X3</text></g><g class="edge" stroke="#000"><path fill="none" d="M39.715 111.43l14.151 28.303"/><path d="M57.024 138.222l1.342 10.51-7.603-7.38 6.261-3.13z"/></g><g class="node" transform="translate(4 184)"><ellipse fill="none" stroke="#000" cx="99" cy="-90" rx="27" ry="18"/><text text-anchor="middle" x="99" y="-85.8" font-family="Times,serif" font-size="14">X4</text></g><g class="edge" stroke="#000"><path fill="none" d="M94.285 111.43l-14.151 28.302"/><path d="M83.237 141.352l-7.603 7.38 1.342-10.51 6.261 3.13z"/></g></g></svg>