<svg xmlns="http://www.w3.org/2000/svg" viewBox="-635.5 -295 954.9 463.3"><path d="M-493.6-125l-52-16.5m0-153v153m0 0L-635-36.2m141.4-241.7v153m0 0L-583-19.6" fill="none" stroke="#000" stroke-linecap="round"/><path d="M-493.6-125l-52-16.5v-153zM-635-36.2l89.5-105.3 52 16.6z" fill="#eee" fill-opacity=".3"/><path d="M-269.5-57.3L-485-126.2m0-88.7v88.7m0 0L-537-65m13.8-85l-51.8-16.5m0-24.4v24.4m0 0l-14.3 16.5" fill="none" stroke="#000" stroke-linecap="round"/><path d="M-493.6-277.9v153l-52-169.5z" fill="#eee" fill-opacity=".3"/><path d="M-523.2-150l-51.8-16.6V-191z" fill="#9df" fill-opacity=".4"/><path d="M-583-19.6l-52-16.6 141.4-88.7z" fill="#eee" fill-opacity=".3"/><path d="M-589.3-149.9l14.3-16.7 51.8 16.5z" fill="#9df" fill-opacity=".4"/><path d="M-583-19.6l89.4-105.4v-153z" fill="#eee" fill-opacity=".3"/><path d="M-523.2-174.4L-575-191m0 0l-14.3 16.8" fill="none" stroke="#000" stroke-linecap="round"/><path d="M-575-191v24.4l-14.3-7.6zm0 24.4l-14.3 16.6v-24.3z" fill="#9df" fill-opacity=".4"/><path d="M-523.2-174.4v24.3m0 0l-14.2 16.8m14.2-41v24.2m0 0l-14.2 16.8m14.2-16.8l17 7.1m-83-31.2v24.2m0 0l51.8 16.6" fill="none" stroke="#000" stroke-linecap="round"/><path d="M-523.2-174.4v24.3L-575-191z" fill="#9df" fill-opacity=".4"/><path d="M-493.6-277.9l-52-16.5m0 0L-635-189" fill="none" stroke="#000" stroke-linecap="round"/><path d="M-537.4-133.3l-51.9-16.6 66.1-.2z" fill="#9df" fill-opacity=".4"/><path d="M-545.5-294.4v153L-635-189z" fill="#eee" fill-opacity=".3"/><path d="M-523.2-174.4v24.3l-14.2 16.8z" fill="#fbb" fill-opacity=".4"/><path d="M-537.4-133.3l14.2-16.8v-24.3z" fill="#9df" fill-opacity=".4"/><path d="M-545.5-141.5L-635-36.2v-153z" fill="#eee" fill-opacity=".3"/><path d="M-523.2-174.4l-14.2 16.8m14.2-16.8l-14.2 16.8m14.2-16.8l17 31.4" fill="none" stroke="#000" stroke-linecap="round"/><path d="M-537.4-157.6l14.2-16.8L-575-191z" fill="#9df" fill-opacity=".4"/><path d="M-523.2-150v-24.4l17 31.4z" fill="#fbb" fill-opacity=".4"/><path d="M-589.3-174.2l52 16.6L-575-191z" fill="#9df" fill-opacity=".4"/><path d="M-589.3-174.2l52 16.6" fill="none" stroke="#000" stroke-linecap="round"/><path d="M-537.4-133.3l14.2-16.8 17 7.1z" fill="#fbb" fill-opacity=".4"/><path d="M-589.3-174.2v24.2l52-7.7zm0 24.3l52 16.6v-24.3z" fill="#9df" fill-opacity=".4"/><path d="M-537.4-157.6v24.3m0 0v-24.3m0 24.3l31-9.7m-128.5-46v153m0 0l52 16.5" fill="none" stroke="#000" stroke-linecap="round"/><path d="M-269.5-57.3L-485-126.2v-88.7z" fill="#eee" fill-opacity=".3"/><path d="M-523.2-174.4l-14.2 41.1v-24.3z" fill="#fbb" fill-opacity=".4"/><path d="M-537.4-157.6v24.3l14.2-41z" fill="#9df" fill-opacity=".4"/><path d="M-493.6-277.9L-583-172.6" fill="none" stroke="#000" stroke-linecap="round"/><path d="M-537-65l52-61.2 215.4 69z" fill="#eee" fill-opacity=".3"/><path d="M-523.2-174.4l-14.2 16.8 31 14.6zm-14.2 16.8v24.3l31-9.7z" fill="#fbb" fill-opacity=".4"/><path d="M-537.4-157.6l31 14.6m237-3L-485-215m0 0l-51.9 61.2m-46-18.8v153" fill="none" stroke="#000" stroke-linecap="round"/><path d="M-485-215v88.8l-52-27.6zm0 88.8L-537-65v-88.7z" fill="#eee" fill-opacity=".3"/><path d="M-537-153.8V-65m0 0l215.6 69m21.6-71l-215.6-69m0-11v11m0 0l-6.5 7.6m252.4-17.7v88.8m0 0l-51.9 61m21.6-82L-515.4-147m0 0l-6.5 7.6" fill="none" stroke="#000" stroke-linecap="round"/><path d="M-515.4-147v11l-6.5-3.5zm0 11l-6.5 7.6v-11z" fill="#9df" fill-opacity=".4"/><path d="M-521.9-139.5v11m0 0l215.6 69" fill="none" stroke="#000" stroke-linecap="round"/><path d="M-583-172.6l89.4-105.3-52-16.5z" fill="#eee" fill-opacity=".3"/><path d="M-521.9-139.5l215.6 69" fill="none" stroke="#000" stroke-linecap="round"/><path d="M-635-36.2l52 16.6v-153zm52-136.4v153l89.4-258.3zm313.5 26.6v88.7L-485-215zM-321.4 3.8L-537-65l267.5 7.8z" fill="#eee" fill-opacity=".3"/><path d="M15.2 32.6l-262-83.6m0-73v73m0 0L-289.4-.8" fill="none" stroke="#000" stroke-linecap="round"/><path d="M-299.8-67.2L-515.4-136v-11zm-222-61.2l6.4-7.6 215.6 68.8zm0-11l215.5 68.7-209-76.5zm0 0v11l215.5 57.8z" fill="#9df" fill-opacity=".4"/><path d="M-635-189l52 16.4 37.5-121.8zm0 0v153l52-136.6zM-321.4 3.7l52-61v-88.9z" fill="#eee" fill-opacity=".3"/><path d="M-299.8-78.2v11l-215.6-80zm-6.5 18.6l-215.6-68.8 222 61.2z" fill="#9df" fill-opacity=".4"/><path d="M-537-153.8L-321.4-85" fill="none" stroke="#000" stroke-linecap="round"/><path d="M-537-153.8L-321.4-85-485-215z" fill="#eee" fill-opacity=".3"/><path d="M-306.3-70.6l6.5-7.6-215.6-69zm-215.6-57.8l215.6 68.8v-11z" fill="#9df" fill-opacity=".4"/><path d="M-537-153.8V-65l215.6-20zM-321.4-85l52-61-215.7-69z" fill="#eee" fill-opacity=".3"/><path d="M-9 53.3l-262-83.7m0-6.6v6.6m0 0l-3.8 4.6m5.4-120.3l-52 61.1" fill="none" stroke="#000" stroke-linecap="round"/><path d="M-537-65l215.6 68.8V-85z" fill="#eee" fill-opacity=".3"/><path d="M-9 46.6L-271-37m0 0l-3.8 4.5" fill="none" stroke="#000" stroke-linecap="round"/><path d="M-271-37v6.6l-3.9-2zm0 6.6l-3.9 4.6v-6.7z" fill="#9df" fill-opacity=".4"/><path d="M-274.8-32.5v6.7m0 0L-13 57.8m-261.8-90.3l262 83.7M-321.5-85V3.8" fill="none" stroke="#000" stroke-linecap="round"/><path d="M15.2 32.6l-262-83.6v-73z" fill="#eee" fill-opacity=".3"/><path d="M-635-189l52 16.4M15.1-40.4l-262-83.6m0 0l-42.6 50.2m-10.4-4.4v11m0 0l-6.5 7.6m6.5-7.6l25.4 6.6m-25.4-17.6v11m0 0l-6.5 7.6" fill="none" stroke="#000" stroke-linecap="round"/><path d="M-289.4-.8l42.6-50.2 262 83.6zm42.6-123.2v73l-42.7-22.8zm0 73L-289.5-.8v-73z" fill="#eee" fill-opacity=".3"/><path d="M-299.8-78.2v11l-6.5 7.6z" fill="#fbb" fill-opacity=".4"/><path d="M-306.3-59.6l6.5-7.6v-11z" fill="#9df" fill-opacity=".4"/><path d="M-289.4-73.8v73m0 0l262 83.7M-299.8-78l-6.5 7.5m6.5-7.6l25.4 17.6m-25.4-17.6l-6.5 7.6" fill="none" stroke="#000" stroke-linecap="round"/><path d="M-299.8-67.2v-11l25.4 17.6zm-6.5 7.6l6.5-7.6 25.4 6.6z" fill="#fbb" fill-opacity=".4"/><path d="M-306.3-59.6v-11m0 11l32-1m-32-10v11" fill="none" stroke="#000" stroke-linecap="round"/><path d="M-299.8-78.2l-6.5 18.6v-11z" fill="#fbb" fill-opacity=".4"/><path d="M-306.3-70.6v11l6.5-18.6z" fill="#9df" fill-opacity=".4"/><path d="M-299.8-78.2l-6.5 7.6 32 10zm-6.5 7.6v11l32-1z" fill="#fbb" fill-opacity=".4"/><path d="M-321.4-85V3.8l52-149.9z" fill="#eee" fill-opacity=".3"/><path d="M-306.3-70.6l32 10" fill="none" stroke="#000" stroke-linecap="round"/><path d="M-9 53.3l-262-83.7V-37zm-265.8-79l4-4.7 262 83.7zm0-6.8l262 83.7L-271-37zm0 0v6.7l262 77z" fill="#9df" fill-opacity=".4"/><path d="M15.2-40.4v73m0 0L-27.5 83" fill="none" stroke="#000" stroke-linecap="round"/><path d="M15.2-40.4v73l-262-156.6zM-27.5 83l-262-83.7L15.2 32.6z" fill="#eee" fill-opacity=".3"/><path d="M-9 46.6v6.7L-271-37zm-4 11.2l-261.8-83.6L-9 53.2z" fill="#9df" fill-opacity=".4"/><path d="M-289.4-73.8l262 83.7" fill="none" stroke="#000" stroke-linecap="round"/><path d="M-13 51.2l4-4.6L-271-37zm-261.8-77l262 83.6v-6.6z" fill="#9df" fill-opacity=".4"/><path d="M319 128.6L38 38.8M38-18v56.8m0 0L4.4 78" fill="none" stroke="#000" stroke-linecap="round"/><path d="M-289.4-73.8l262 83.7-219.4-134zm0 0v73l262 10.7zM-27.4 83l42.6-50.3v-73zm0-73l42.6-50.3-262-83.6z" fill="#eee" fill-opacity=".3"/><path d="M-9 46.6v6.7m0 0l-4 4.5m4-11.2v6.7m0 0l-4 4.5m4-4.5l26.4.8" fill="none" stroke="#000" stroke-linecap="round"/><path d="M-13 57.8l4-4.5v-6.7z" fill="#9df" fill-opacity=".4"/><path d="M-9 46.6v6.7l-4 4.5z" fill="#fbb" fill-opacity=".4"/><path d="M-289.4-.8l262 83.7V10z" fill="#eee" fill-opacity=".3"/><path d="M-9 46.6l-4 4.6m4-4.6l-4 4.6m4-4.6l26.4 7.5m-30.4-3v6.7m0 0v-6.6m0 6.6l30.4-3.7" fill="none" stroke="#000" stroke-linecap="round"/><path d="M-13 51.2v6.6l4-11.2z" fill="#9df" fill-opacity=".4"/><path d="M-9 46.6l-4 11.2v-6.6zm0 6.7v-6.7l26.4 7.5zm-4 4.5l4-4.5 26.4.8z" fill="#fbb" fill-opacity=".4"/><path d="M-13 51.2l30.4 3" fill="none" stroke="#000" stroke-linecap="round"/><path d="M-9 46.6l-4 4.6 30.4 3zm-4 4.6v6.6l30.4-3.7z" fill="#fbb" fill-opacity=".4"/><path d="M15.2-40.4L-27.5 10m0 0v73M319 72L38-18m0 0L4.6 21.1" fill="none" stroke="#000" stroke-linecap="round"/><path d="M37.8-18v56.8L4.6 21.1zm0 56.8L4.6 78V21.1z" fill="#eee" fill-opacity=".3"/><path d="M4.6 21.1v57m0 0l281 89.7" fill="none" stroke="#000" stroke-linecap="round"/><path d="M319 128.6L38 38.8V-18zM4.5 78l33.2-39L319 128.7zm-32-68v73L15.2-40.4z" fill="#eee" fill-opacity=".3"/><path d="M4.6 21.1l281 89.8" fill="none" stroke="#000" stroke-linecap="round"/><path d="M319 71.8v56.8L38-18zm-33.3 96L4.7 78l314.2 50.7z" fill="#eee" fill-opacity=".3"/><path d="M319 71.8v56.8m0 0l-33.3 39.1" fill="none" stroke="#000" stroke-linecap="round"/><path d="M4.6 21.1l281 89.8L38-18zm0 0v57l281 33zm281 89.8L319 72 38-18zM4.6 78l281 89.8V111zm281 89.8l33.3-39v-57z" fill="#eee" fill-opacity=".3"/><path d="M319 71.8L285.6 111m0 0v56.8" fill="none" stroke="#000" stroke-linecap="round"/><path d="M285.7 111v56.7L319 71.8z" fill="#eee" fill-opacity=".3"/></svg>