<svg width="134pt" height="206pt" viewBox="0 0 134 206" xmlns="http://www.w3.org/2000/svg"><g class="graph" transform="translate(4 202)"><g class="node"><ellipse fill="none" stroke="#000" cx="27" cy="-18" rx="27" ry="18"/><text text-anchor="middle" x="27" y="-13.8" font-family="Times,serif" font-size="14">X1</text></g><g class="node"><path fill="none" stroke="#000" d="M126-36H90V0h36v-36z"/><text text-anchor="middle" x="108" y="-13.8" font-family="Times,serif" font-size="14">fa</text></g><g class="edge"><path fill="none" stroke="#000" d="M54.423-18H89.53"/></g><g class="node"><ellipse fill="none" stroke="#000" cx="27" cy="-126" rx="27" ry="18"/><text text-anchor="middle" x="27" y="-121.8" font-family="Times,serif" font-size="14">X2</text></g><g class="node"><path fill="none" stroke="#000" d="M126-171H90v36h36v-36z"/><text text-anchor="middle" x="108" y="-148.8" font-family="Times,serif" font-size="14">fb</text></g><g class="edge"><path fill="none" stroke="#000" d="M51.303-134.1c12.395-4.133 27.214-9.072 38.593-12.865"/></g><g class="node"><path fill="none" stroke="#000" d="M126-90H90v36h36v-36z"/><text text-anchor="middle" x="108" y="-67.8" font-family="Times,serif" font-size="14">fc</text></g><g class="edge"><path fill="none" stroke="#000" d="M46.196-113.203l43.58 29.054"/></g><g class="node"><ellipse fill="none" stroke="#000" cx="27" cy="-180" rx="27" ry="18"/><text text-anchor="middle" x="27" y="-175.8" font-family="Times,serif" font-size="14">X3</text></g><g class="edge"><path fill="none" stroke="#000" d="M51.303-171.9c12.395 4.133 27.214 9.072 38.593 12.865"/></g><g class="node"><ellipse fill="none" stroke="#000" cx="27" cy="-72" rx="27" ry="18"/><text text-anchor="middle" x="27" y="-67.8" font-family="Times,serif" font-size="14">X4</text></g><g class="edge"><path fill="none" stroke="#000" d="M54.423-72H89.53"/></g></g></svg>