<svg width="472" height="332pt" viewBox="0 0 354.33 332" xmlns="http://www.w3.org/2000/svg"><g class="graph" transform="translate(4 328)"><g class="node"><ellipse fill="none" stroke="#000" cx="173.665" cy="-162" rx="27" ry="18"/><text text-anchor="middle" x="173.665" y="-157.8" font-family="Times,serif" font-size="14">X1</text></g><g class="node"><ellipse fill="#d3d3d3" stroke="#000" cx="100.665" cy="-90" rx="27" ry="18"/><text text-anchor="middle" x="100.665" y="-85.8" font-family="Times,serif" font-size="14">X2</text></g><g class="edge"><path fill="none" stroke="#000" d="M158.54-147.082l-35.344 34.86"/><path stroke="#000" d="M125.6-109.677l-9.578 4.53 4.662-9.514 4.916 4.984z"/></g><g class="node"><ellipse fill="#d3d3d3" stroke="#000" cx="173.665" cy="-90" rx="27" ry="18"/><text text-anchor="middle" x="173.665" y="-85.8" font-family="Times,serif" font-size="14">X4</text></g><g class="edge"><path fill="none" stroke="#000" d="M173.665-143.831v25.414"/><path stroke="#000" d="M177.165-118.413l-3.5 10-3.5-10h7z"/></g><g class="node"><ellipse fill="none" stroke="#000" cx="100.665" cy="-18" rx="27.831" ry="18"/><text text-anchor="middle" x="100.665" y="-13.8" font-family="Times,serif" font-size="14">X13</text></g><g class="edge"><path fill="none" stroke="#000" d="M100.665-71.831v25.414"/><path stroke="#000" d="M104.165-46.413l-3.5 10-3.5-10h7z"/></g><g class="node"><ellipse fill="#d3d3d3" stroke="#000" cx="100.665" cy="-162" rx="27" ry="18"/><text text-anchor="middle" x="100.665" y="-157.8" font-family="Times,serif" font-size="14">X3</text></g><g class="edge"><path fill="none" stroke="#000" d="M100.665-143.831v25.414"/><path stroke="#000" d="M104.165-118.413l-3.5 10-3.5-10h7z"/></g><g class="node"><ellipse fill="none" stroke="#000" cx="173.665" cy="-18" rx="27" ry="18"/><text text-anchor="middle" x="173.665" y="-13.8" font-family="Times,serif" font-size="14">X8</text></g><g class="edge"><path fill="none" stroke="#000" d="M173.665-71.831v25.414"/><path stroke="#000" d="M177.165-46.413l-3.5 10-3.5-10h7z"/></g><g class="node"><ellipse fill="#d3d3d3" stroke="#000" cx="173.665" cy="-234" rx="27" ry="18"/><text text-anchor="middle" x="173.665" y="-229.8" font-family="Times,serif" font-size="14">X5</text></g><g class="edge"><path fill="none" stroke="#000" d="M173.665-215.831v25.414"/><path stroke="#000" d="M177.165-190.413l-3.5 10-3.5-10h7z"/></g><g class="node"><ellipse fill="#d3d3d3" stroke="#000" cx="245.665" cy="-234" rx="27" ry="18"/><text text-anchor="middle" x="245.665" y="-229.8" font-family="Times,serif" font-size="14">X6</text></g><g class="edge"><path fill="none" stroke="#000" d="M230.395-218.73l-34.167 34.166"/><path stroke="#000" d="M198.458-181.844l-9.546 4.597 4.596-9.546 4.95 4.95z"/></g><g class="node"><ellipse fill="none" stroke="#000" cx="281.665" cy="-162" rx="27" ry="18"/><text text-anchor="middle" x="281.665" y="-157.8" font-family="Times,serif" font-size="14">X9</text></g><g class="edge"><path fill="none" stroke="#000" d="M254.38-216.57l14.151 28.303"/><path stroke="#000" d="M271.689-189.778l1.341 10.51-7.602-7.38 6.26-3.13z"/></g><g class="node"><ellipse fill="none" stroke="#000" cx="245.665" cy="-306" rx="27" ry="18"/><text text-anchor="middle" x="245.665" y="-301.8" font-family="Times,serif" font-size="14">X7</text></g><g class="edge"><path fill="none" stroke="#000" d="M245.665-287.831v25.414"/><path stroke="#000" d="M249.165-262.413l-3.5 10-3.5-10h7z"/></g><g class="node"><ellipse fill="none" stroke="#000" cx="318.665" cy="-234" rx="27.831" ry="18"/><text text-anchor="middle" x="318.665" y="-229.8" font-family="Times,serif" font-size="14">X10</text></g><g class="edge"><path fill="none" stroke="#000" d="M309.708-216.57l-14.545 28.303"/><path stroke="#000" d="M298.223-186.563l-7.684 7.294 1.458-10.494 6.226 3.2z"/></g><g class="node"><ellipse fill="none" stroke="#000" cx="27.665" cy="-234" rx="27.831" ry="18"/><text text-anchor="middle" x="27.665" y="-229.8" font-family="Times,serif" font-size="14">X11</text></g><g class="edge"><path fill="none" stroke="#000" d="M43.146-218.73l34.642 34.166"/><path stroke="#000" d="M80.544-186.761l4.662 9.514-9.578-4.53 4.916-4.984z"/></g><g class="node"><ellipse fill="none" stroke="#000" cx="100.665" cy="-234" rx="27.831" ry="18"/><text text-anchor="middle" x="100.665" y="-229.8" font-family="Times,serif" font-size="14">X12</text></g><g class="edge"><path fill="none" stroke="#000" d="M100.665-215.831v25.414"/><path stroke="#000" d="M104.165-190.413l-3.5 10-3.5-10h7z"/></g></g></svg>