<svg xmlns="http://www.w3.org/2000/svg" width="888" height="741" cursor="move"><g transform="translate(-299.2 -272) scale(1.3566)"><path class="link" stroke-width=".5" stroke="#505050" d="M264.7 322l180-80m-180 80l180-40m-180 40h180m-180 0l180 40m-180-40l180 80m-180-80l180 120m-180-120l180 160m-180-160l180 200m-180-200l180 240m-180-240l180 280m-180-280l180 320m-180-320l180 360m-180-320l180-120m-180 120l180-80m-180 80l180-40m-180 40h180m-180 0l180 40m-180-40l180 80m-180-80l180 120m-180-120l180 160m-180-160l180 200m-180-200l180 240m-180-240l180 280m-180-280l180 320m-180-280l180-160m-180 160l180-120m-180 120l180-80m-180 80l180-40m-180 40h180m-180 0l180 40m-180-40l180 80m-180-80l180 120m-180-120l180 160m-180-160l180 200m-180-200l180 240m-180-240l180 280m-180-240l180-200m-180 200l180-160m-180 160l180-120m-180 120l180-80m-180 80l180-40m-180 40h180m-180 0l180 40m-180-40l180 80m-180-80l180 120m-180-120l180 160m-180-160l180 200m-180-200l180 240m-180-200l180-240m-180 240l180-200m-180 200l180-160m-180 160l180-120m-180 120l180-80m-180 80l180-40m-180 40h180m-180 0l180 40m-180-40l180 80m-180-80l180 120m-180-120l180 160m-180-160l180 200m-180-160l180-280m-180 280l180-240m-180 240l180-200m-180 200l180-160m-180 160l180-120m-180 120l180-80m-180 80l180-40m-180 40h180m-180 0l180 40m-180-40l180 80m-180-80l180 120m-180-120l180 160m-180-120l180-320m-180 320l180-280m-180 280l180-240m-180 240l180-200m-180 200l180-160m-180 160l180-120m-180 120l180-80m-180 80l180-40m-180 40h180m-180 0l180 40m-180-40l180 80m-180-80l180 120m-180-80l180-360m-180 360l180-320m-180 320l180-280m-180 280l180-240m-180 240l180-200m-180 200l180-160m-180 160l180-120m-180 120l180-80m-180 80l180-40m-180 40h180m-180 0l180 40m-180-40l180 80m0-440h180m-180 0l180 40m-180-40l180 80m-180-80l180 120m-180-120l180 160m-180-160l180 200m-180-200l180 240m-180-240l180 280m-180-280l180 320m-180-320l180 360m-180-360l180 400m-180-400l180 440m-180-400l180-40m-180 40h180m-180 0l180 40m-180-40l180 80m-180-80l180 120m-180-120l180 160m-180-160l180 200m-180-200l180 240m-180-240l180 280m-180-280l180 320m-180-320l180 360m-180-360l180 400m-180-360l180-80m-180 80l180-40m-180 40h180m-180 0l180 40m-180-40l180 80m-180-80l180 120m-180-120l180 160m-180-160l180 200m-180-200l180 240m-180-240l180 280m-180-280l180 320m-180-320l180 360m-180-320l180-120m-180 120l180-80m-180 80l180-40m-180 40h180m-180 0l180 40m-180-40l180 80m-180-80l180 120m-180-120l180 160m-180-160l180 200m-180-200l180 240m-180-240l180 280m-180-280l180 320m-180-280l180-160m-180 160l180-120m-180 120l180-80m-180 80l180-40m-180 40h180m-180 0l180 40m-180-40l180 80m-180-80l180 120m-180-120l180 160m-180-160l180 200m-180-200l180 240m-180-240l180 280m-180-240l180-200m-180 200l180-160m-180 160l180-120m-180 120l180-80m-180 80l180-40m-180 40h180m-180 0l180 40m-180-40l180 80m-180-80l180 120m-180-120l180 160m-180-160l180 200m-180-200l180 240m-180-200l180-240m-180 240l180-200m-180 200l180-160m-180 160l180-120m-180 120l180-80m-180 80l180-40m-180 40h180m-180 0l180 40m-180-40l180 80m-180-80l180 120m-180-120l180 160m-180-160l180 200m-180-160l180-280m-180 280l180-240m-180 240l180-200m-180 200l180-160m-180 160l180-120m-180 120l180-80m-180 80l180-40m-180 40h180m-180 0l180 40m-180-40l180 80m-180-80l180 120m-180-120l180 160m-180-120l180-320m-180 320l180-280m-180 280l180-240m-180 240l180-200m-180 200l180-160m-180 160l180-120m-180 120l180-80m-180 80l180-40m-180 40h180m-180 0l180 40m-180-40l180 80m-180-80l180 120m-180-80l180-360m-180 360l180-320m-180 320l180-280m-180 280l180-240m-180 240l180-200m-180 200l180-160m-180 160l180-120m-180 120l180-80m-180 80l180-40m-180 40h180m-180 0l180 40m-180-40l180 80m-180-40l180-400m-180 400l180-360m-180 360l180-320m-180 320l180-280m-180 280l180-240m-180 240l180-200m-180 200l180-160m-180 160l180-120m-180 120l180-80m-180 80l180-40m-180 40h180m-180 0l180 40m-180 0l180-440m-180 440l180-400m-180 400l180-360m-180 360l180-320m-180 320l180-280m-180 280l180-240m-180 240l180-200m-180 200l180-160m-180 160l180-120m-180 120l180-80m-180 80l180-40m-180 40h180m0-440l180 220m-180-180l180 180m-180-140l180 140m-180-100l180 100m-180-60l180 60m-180-20l180 20m-180 20l180-20m-180 60l180-60m-180 100l180-100m-180 140l180-140m-180 180l180-180m-180 220l180-220"/><circle r="10" class="node" cx="264.7" cy="322" fill="#fff" stroke="#333"/><circle r="10" class="node" cx="264.7" cy="362" fill="#fff" stroke="#333"/><circle r="10" class="node" cx="264.7" cy="402" fill="#fff" stroke="#333"/><circle r="10" class="node" cx="264.7" cy="442" fill="#fff" stroke="#333"/><circle r="10" class="node" cx="264.7" cy="482" fill="#fff" stroke="#333"/><circle r="10" class="node" cx="264.7" cy="522" fill="#fff" stroke="#333"/><circle r="10" class="node" cx="264.7" cy="562" fill="#fff" stroke="#333"/><circle r="10" class="node" cx="264.7" cy="602" fill="#fff" stroke="#333"/><circle r="10" class="node" cx="444.7" cy="242" fill="#fff" stroke="#333"/><circle r="10" class="node" cx="444.7" cy="282" fill="#fff" stroke="#333"/><circle r="10" class="node" cx="444.7" cy="322" fill="#fff" stroke="#333"/><circle r="10" class="node" cx="444.7" cy="362" fill="#fff" stroke="#333"/><circle r="10" class="node" cx="444.7" cy="402" fill="#fff" stroke="#333"/><circle r="10" class="node" cx="444.7" cy="442" fill="#fff" stroke="#333"/><circle r="10" class="node" cx="444.7" cy="482" fill="#fff" stroke="#333"/><circle r="10" class="node" cx="444.7" cy="522" fill="#fff" stroke="#333"/><circle r="10" class="node" cx="444.7" cy="562" fill="#fff" stroke="#333"/><circle r="10" class="node" cx="444.7" cy="602" fill="#fff" stroke="#333"/><circle r="10" class="node" cx="444.7" cy="642" fill="#fff" stroke="#333"/><circle r="10" class="node" cx="444.7" cy="682" fill="#fff" stroke="#333"/><circle r="10" class="node" cx="624.7" cy="242" fill="#fff" stroke="#333"/><circle r="10" class="node" cx="624.7" cy="282" fill="#fff" stroke="#333"/><circle r="10" class="node" cx="624.7" cy="322" fill="#fff" stroke="#333"/><circle r="10" class="node" cx="624.7" cy="362" fill="#fff" stroke="#333"/><circle r="10" class="node" cx="624.7" cy="402" fill="#fff" stroke="#333"/><circle r="10" class="node" cx="624.7" cy="442" fill="#fff" stroke="#333"/><circle r="10" class="node" cx="624.7" cy="482" fill="#fff" stroke="#333"/><circle r="10" class="node" cx="624.7" cy="522" fill="#fff" stroke="#333"/><circle r="10" class="node" cx="624.7" cy="562" fill="#fff" stroke="#333"/><circle r="10" class="node" cx="624.7" cy="602" fill="#fff" stroke="#333"/><circle r="10" class="node" cx="624.7" cy="642" fill="#fff" stroke="#333"/><circle r="10" class="node" cx="624.7" cy="682" fill="#fff" stroke="#333"/><circle r="10" class="node" cx="804.7" cy="462" fill="#fff" stroke="#333"/><text class="text" dy=".3em" x="229.7" y="722" font-size="13">Input Layer ∈ ℝᴰ</text><text class="text" dy=".3em" x="390" y="722" font-size="13">Hidden Layer ∈ ℝᴷ</text><text class="text" dy=".3em" x="570" y="722" font-size="13">Hidden Layer ∈ ℝᴷ</text><text class="text" dy=".3em" x="750" y="722" font-size="13">Output Layer ∈ ℝ¹</text></g></svg>