<svg xmlns="http://www.w3.org/2000/svg" width="511.5" height="230.7"><g transform="translate(-2634.2 -1249) scale(2.94854)"><path class="link" stroke="#505050" stroke-width=".5" d="M918 462l62-20m-62 20l62 20m0-40l62 20m-62 20l62-20"/><circle r="10" class="node" cx="918" cy="462" fill="#fff" stroke="#333"/><circle r="10" class="node" cx="980" cy="442" fill="#fff" stroke="#333"/><circle r="10" class="node" cx="980" cy="482" fill="#fff" stroke="#333"/><circle r="10" class="node" cx="1042" cy="462" fill="#fff" stroke="#333"/></g><text style="line-height:1.25" x="120.1" y="123.2" transform="rotate(-16.9)" font-weight="400" font-size="33.3" letter-spacing="0" word-spacing="0" font-family="sans-serif"><tspan x="120.1" y="123.2">w</tspan></text><text style="line-height:1.25" x="200.3" y="98.4" transform="matrix(.9036 .35423 -.41115 .9455 0 0)" font-weight="400" font-size="33.3" letter-spacing="0" word-spacing="0" font-family="sans-serif"><tspan x="200.3" y="98.4">w</tspan></text><text style="line-height:1.25" x="242" y="304" transform="rotate(-24.4)" font-weight="400" font-size="40" letter-spacing="0" word-spacing="0" font-family="sans-serif"><tspan x="242" y="304" font-size="33.3">-h</tspan></text><text style="line-height:1.25" x="339.1" y="-42.5" transform="rotate(19.3)" font-weight="400" font-size="40" letter-spacing="0" word-spacing="0" font-family="sans-serif"><tspan x="339.1" y="-42.5" font-size="33.3">h</tspan></text><text style="line-height:1.25" x="182.2" y="20.3" font-weight="400" font-size="40" letter-spacing="0" word-spacing="0" font-family="sans-serif"><tspan x="182.2" y="20.3" font-size="26.7">bias = aw</tspan></text><text style="line-height:1.25" x="181.9" y="230.3" font-weight="400" font-size="40" letter-spacing="0" word-spacing="0" font-family="sans-serif"><tspan x="181.9" y="230.3" font-size="26.7">bias = bw</tspan></text><text style="line-height:1.25" x="-162.7" y="27" transform="rotate(-91.3)" font-weight="400" font-size="40" font-family="sans-serif" letter-spacing="0" word-spacing="0"><tspan x="-162.7" y="27">input</tspan></text><text style="line-height:1.25" x="-178.1" y="502.8" transform="rotate(-90.2)" font-weight="400" font-size="40" font-family="sans-serif" letter-spacing="0" word-spacing="0"><tspan x="-178.1" y="502.8">output</tspan></text></svg>