<svg xmlns="http://www.w3.org/2000/svg" viewBox="0 0 105.83333 68.791668"><path d="M15.34304 61.06953c.30299-.0298.60596-.0893.90895-.119.30298-.0297.60596-.0892.90894-.119.30299-.0298.60596-.0893.90895-.14874l.90895-.1785c.30298-.0595.60596-.14875.90894-.238.30298-.0892.60596-.14875.90895-.238l.90894-.26775c.30298-.0892.60596-.20825.90895-.32725.30298-.11899.60596-.26774.90895-.38674.30298-.119.60596-.26775.90894-.4165.30298-.14875.60596-.29749.90894-.47599l.90895-.5355c.30298-.1785.60596-.38675.90894-.595.30299-.20824.60597-.41649.90895-.6545l.90895-.71399c.30298-.238.60596-.5355.90894-.80325.30299-.26774.60597-.56524.90895-.86274.30298-.29749.60596-.595.90895-.92224.30298-.32725.60595-.68425.90894-1.01149.30299-.32725.60596-.68425.90895-1.04125.30298-.35699.60596-.74375.90894-1.13049l.90895-1.16024c.30298-.38675.60596-.833.90894-1.24949.30299-.4165.60596-.86275.90895-1.27924.30299-.4165.60596-.833.90895-1.27925l.90894-1.33874.90895-1.33874.90894-1.33874c.30298-.44624.60596-.86274.90895-1.30899.30298-.44625.60596-.8925.90894-1.30899l.90895-1.24949c.30298-.4165.60596-.80325.90894-1.18999.30299-.38675.60596-.77349.90895-1.1305.30298-.35699.60596-.68425.90895-1.01149.30298-.32725.60595-.62475.90894-.92224.30299-.2975.60596-.56525.90894-.83299.30299-.26776.60597-.47601.90895-.68425.30299-.20826.60597-.38675.90895-.56525.30298-.1785.60596-.29749.90894-.4165.30299-.119.60596-.20824.90895-.26774.30298-.0595.60596-.0892.90894-.119.30299-.0297.60597 0 .90895.0298.30299.0297.60597.119.90895.20824.30298.0892.60596.17851.90894.32726.30299.14875.60596.32724.90895.50574.30299.17851.60596.38675.90894.62475.30299.238.60596.476.90895.74374.30298.26775.60596.56525.90895.89249l.90894.98175c.30299.32725.60596.68425.90895 1.071l.90894 1.16024c.30298.38675.60596.80324.90895 1.21974.30298.4165.60596.83299.90894 1.27924.30299.44625.60596.86274.90895 1.30899l.90894 1.33874c.30299.44625.60597.86274.90895 1.30899l.90895 1.33874.90894 1.33874c.30299.44625.60596.86275.90895 1.27924l.90894 1.2495c.30299.41649.60597.80325.90895 1.18999l.90894 1.16025c.30299.38674.60596.74374.90895 1.10073.30299.357.60596.714.90895 1.04125.30298.32725.60595.65449.90894.952l.90895.89249c.30298.29749.60596.56524.90894.83299.30299.26774.60596.50574.90895.74374.30298.238.60596.476.90894.68425l.90895.62474c.30299.20825.60596.38675.90895.56525.30298.17849.60595.357.90894.50574l.90895.44625c.30298.14876.60596.2975.90894.4165.30299.119.60596.20825.90895.32725.30298.119.60596.238.90895.32725.30298.0892.60596.14875.90894.238.30298.0892.60596.14874.90895.23799.30298.0893.60596.14875.90894.20825.30298.0595.60596.0892.90894.14875.30299.0595.60597.0892.90895.14875.30299.0595.60597.0892.90895.119.30298.0298.60596.0892.90894.119l.90895.0893c.30299.0297.60596.0297.90894.0595.30299.0297.60597.0595.90895.0595.30299 0 .60596 0 .90895.0298.30298.0297.60596.0297.90894.0595.30299.0297.60596.0297.90895.0297.30298 0 .60596.0297.90894.0297h.90895c.30299 0 .60596.0298.90894.0298h.90895c.30299 0 .60596.0297.90895.0297h2.72683c.30299 0 .60596 0 .90895.0297" stroke-miterlimit="10" fill="none" stroke="#000" stroke-width=".529081" stroke-linecap="round" stroke-linejoin="round"/><path d="M15.34304 61.57528h64.53515c.30298 0 .60595-.006.90894-.032.30298-.0256.60596-.0769.90895-.26271.30298-.18583.60596-.51902.90894-1.46094.303-.94193.60598-2.49899.90895-5.53621.30302-3.04364.606-7.56744.90895-13.68033.30301-6.11931.60596-13.8213.90894-20.79923.30294-6.97793.6059-13.23179.90895-15.83971.30298-2.60791.60599-1.56987.90894 2.5887.30304 4.15855.60599 11.43124.90894 18.63984.30297 7.2086.60593 14.34032.90895 19.72274.30295 5.38243.60594 9.00916.90895 11.37358.30297 2.36443.60596 3.46654.90894 4.12652.30299.65999.60597.87144.90895.98678.30299.11534.60596.14097.90894.15379.30299.0128.60597.0192.90895.0192h10.90735" stroke-miterlimit="10" fill="none" stroke="#000" stroke-width=".529081" stroke-linecap="round" stroke-linejoin="round"/><path d="M15.34304 61.57528h64.53515c.30298 0 .60595-.006.90894-.032.30298-.0256.60596-.0769.90895-.26271.30298-.18583.60596-.51902.90894-1.46094.303-.94193.60598-2.49899.90895-5.53621.30302-3.04364.606-7.56744.90895-13.68033.30301-6.11931.60596-13.8213.90894-20.79923.30294-6.97793.6059-13.23179.90895-15.83971.30298-2.60791.60599-1.56987.90894 2.5887.30304 4.15855.60599 11.43124.90894 18.63984.30297 7.2086.60593 14.34032.90895 19.72274.30295 5.38243.60594 9.00916.90895 11.37358.30297 2.36443.60596 3.46654.90894 4.12652.30299.65999.60597.87144.90895.98678.30299.11534.60596.14097.90894.15379.30299.0128.60597.0192.90895.0192h10.90735" stroke-miterlimit="10" fill="none" stroke="#000" stroke-width=".529081" stroke-linecap="round" stroke-linejoin="round"/><path d="M15.34304 61.07068l.90895-.10813c.30298-.036.60596-.10813.90894-.14417.30299-.036.60596-.10814.90895-.14418.30299-.036.60596-.10812.90895-.18021l.90894-.21625c.30298-.0721.60596-.18022.90895-.25231.30298-.0721.60596-.14418.90894-.2523l.90895-.32438c.30298-.10814.60596-.25231.90895-.39649l.90894-.4325c.30298-.14418.60596-.28835.90894-.46857l.90895-.54064c.30298-.18022.60596-.36044.90894-.57669l.90895-.64878c.30299-.21625.60596-.46856.90895-.72086.30298-.2523.60596-.5046.90894-.79294l.90895-.86504c.30298-.28834.60596-.61272.90895-.93712.30298-.32438.60595-.68481.90894-1.0092.30299-.32439.60596-.68481.90895-1.04525.30298-.36043.60596-.7569.90894-1.11733.30299-.36043.60596-.7569.90895-1.15337.30298-.39648.60596-.829.90894-1.26151l.90895-1.29755c.30299-.43251.60596-.82899.90895-1.2615.30298-.43252.60595-.90108.90894-1.33359.30298-.43253.60596-.90108.90895-1.3336.30298-.43252.60596-.90108.90894-1.33359.30298-.43252.60596-.90107.90895-1.33359l.90894-1.29756c.30299-.4325.60596-.86502.90895-1.2615l.90894-1.18942c.30299-.39647.60596-.7569.90895-1.11734.30298-.36042.60596-.68481.90895-1.0092.30298-.32439.60595-.64878.90894-.93711.30299-.28835.60596-.57669.90894-.82899.30299-.25231.60597-.46857.90895-.68482.30299-.21626.60597-.36044.90895-.54065.30298-.18021.60596-.32439.90894-.43251.30299-.10813.60596-.18022.90895-.2523.30298-.0721.60596-.10813.90894-.14418.30299-.036.60597 0 .90895.036.30299.036.60597.14417.90895.21625.30298.0721.60596.18022.90894.32439.30299.14418.60596.3244.90895.5046.30299.18022.60596.39648.90894.61274.30299.21626.60596.46855.90895.7569.30298.28834.60596.57669.90895.90108l.90894.97316c.30299.32438.60596.72086.90895 1.08129.30298.36043.60596.7569.90894 1.15337.30298.39648.60596.79295.90895 1.22547.30298.43252.60596.82899.90894 1.26151l.90895 1.29754c.30298.43252.60596.93713.90894 1.36963l.90895 1.29756c.30298.43252.60596.90107.90895 1.33359.30298.43252.60596.90108.90894 1.33359l.90895 1.29755c.30298.43252.60596.82899.90894 1.22546l.90895 1.18942c.30298.39647.60596.7569.90894 1.15338.30299.39647.60596.7569.90895 1.11734.30299.36042.60596.72085.90895 1.04524.30298.32439.60595.64877.90894.93712.30299.28834.60597.61273.90895.90107.30298.28835.60596.5767.90894.82899l.90895.75691c.30298.2523.60596.46856.90894.68482.30299.21625.60596.39647.90895.61272.30299.21627.60596.39648.90895.57669.30298.18022.60595.32439.90894.46857.30298.14417.60596.21625.90895.18021.30298-.036.60596-.21626.90894-1.0092.30299-.79295.60596-2.23467.90895-5.11812.30298-2.88344.60596-7.2086.90895-13.1557.30298-5.9471.60596-13.48009.90894-20.25617.30298-6.7761.60596-12.83132.90895-15.31829.30298-2.48697.60596-1.40568.90894 2.73927.30298 4.14494.60596 11.35355.90894 18.49007.30299 7.13651.60597 14.23699.90895 19.57136.30299 5.33436.60597 8.93867.90895 11.3175.30298 2.37885.60596 3.49618.90894 4.181.30299.68482.60597.90107.90895 1.04525.30299.14417.60596.18021.90894.21626.30299.036.60597.0721.90895.0721.30299 0 .60596 0 .90895.036.30298.036.60596.036.90894.0721.30299.036.60596.036.90895.036.30298 0 .60596.036.90894.036h2.72684c.30299 0 .60596.036.90895.036h2.72683c.30299 0 .60596 0 .90895.036" stroke-miterlimit="10" fill="none" stroke="red" stroke-width=".529081" stroke-linecap="round" stroke-linejoin="round"/><path d="M15.34304 61.07068l.90895-.10813c.30298-.036.60596-.10813.90894-.14417.30299-.036.60596-.10814.90895-.14418.30299-.036.60596-.10812.90895-.18021l.90894-.21625c.30298-.0721.60596-.18022.90895-.25231.30298-.0721.60596-.14418.90894-.2523l.90895-.32438c.30298-.10814.60596-.25231.90895-.39649l.90894-.4325c.30298-.14418.60596-.28835.90894-.46857l.90895-.54064c.30298-.18022.60596-.36044.90894-.57669l.90895-.64878c.30299-.21625.60596-.46856.90895-.72086.30298-.2523.60596-.5046.90894-.79294l.90895-.86504c.30298-.28834.60596-.61272.90895-.93712.30298-.32438.60595-.68481.90894-1.0092.30299-.32439.60596-.68481.90895-1.04525.30298-.36043.60596-.7569.90894-1.11733.30299-.36043.60596-.7569.90895-1.15337.30298-.39648.60596-.829.90894-1.26151l.90895-1.29755c.30299-.43251.60596-.82899.90895-1.2615.30298-.43252.60595-.90108.90894-1.33359.30298-.43253.60596-.90108.90895-1.3336.30298-.43252.60596-.90108.90894-1.33359.30298-.43252.60596-.90107.90895-1.33359l.90894-1.29756c.30299-.4325.60596-.86502.90895-1.2615l.90894-1.18942c.30299-.39647.60596-.7569.90895-1.11734.30298-.36042.60596-.68481.90895-1.0092.30298-.32439.60595-.64878.90894-.93711.30299-.28835.60596-.57669.90894-.82899.30299-.25231.60597-.46857.90895-.68482.30299-.21626.60597-.36044.90895-.54065.30298-.18021.60596-.32439.90894-.43251.30299-.10813.60596-.18022.90895-.2523.30298-.0721.60596-.10813.90894-.14418.30299-.036.60597 0 .90895.036.30299.036.60597.14417.90895.21625.30298.0721.60596.18022.90894.32439.30299.14418.60596.3244.90895.5046.30299.18022.60596.39648.90894.61274.30299.21626.60596.46855.90895.7569.30298.28834.60596.57669.90895.90108l.90894.97316c.30299.32438.60596.72086.90895 1.08129.30298.36043.60596.7569.90894 1.15337.30298.39648.60596.79295.90895 1.22547.30298.43252.60596.82899.90894 1.26151l.90895 1.29754c.30298.43252.60596.93713.90894 1.36963l.90895 1.29756c.30298.43252.60596.90107.90895 1.33359.30298.43252.60596.90108.90894 1.33359l.90895 1.29755c.30298.43252.60596.82899.90894 1.22546l.90895 1.18942c.30298.39647.60596.7569.90894 1.15338.30299.39647.60596.7569.90895 1.11734.30299.36042.60596.72085.90895 1.04524.30298.32439.60595.64877.90894.93712.30299.28834.60597.61273.90895.90107.30298.28835.60596.5767.90894.82899l.90895.75691c.30298.2523.60596.46856.90894.68482.30299.21625.60596.39647.90895.61272.30299.21627.60596.39648.90895.57669.30298.18022.60595.32439.90894.46857.30298.14417.60596.21625.90895.18021.30298-.036.60596-.21626.90894-1.0092.30299-.79295.60596-2.23467.90895-5.11812.30298-2.88344.60596-7.2086.90895-13.1557.30298-5.9471.60596-13.48009.90894-20.25617.30298-6.7761.60596-12.83132.90895-15.31829.30298-2.48697.60596-1.40568.90894 2.73927.30298 4.14494.60596 11.35355.90894 18.49007.30299 7.13651.60597 14.23699.90895 19.57136.30299 5.33436.60597 8.93867.90895 11.3175.30298 2.37885.60596 3.49618.90894 4.181.30299.68482.60597.90107.90895 1.04525.30299.14417.60596.18021.90894.21626.30299.036.60597.0721.90895.0721.30299 0 .60596 0 .90895.036.30298.036.60596.036.90894.0721.30299.036.60596.036.90895.036.30298 0 .60596.036.90894.036h2.72684c.30299 0 .60596.036.90895.036h2.72683c.30299 0 .60596 0 .90895.036" stroke-miterlimit="10" fill="none" stroke="red" stroke-width=".529081" stroke-linecap="round" stroke-linejoin="round"/><path d="M15.34304 61.57528h89.98535" stroke-miterlimit="10" fill="none" stroke="#000" stroke-width=".529081" stroke-linecap="round" stroke-linejoin="round"/><path d="M103.37357 62.38502l1.95482-.80974-1.95482-.80974z" stroke-miterlimit="10" stroke="#000" stroke-width=".529081" stroke-linecap="round" stroke-linejoin="round"/><path d="M15.34304 61.57528V1.58504" stroke-miterlimit="10" fill="none" stroke="#000" stroke-width=".529081" stroke-linecap="round" stroke-linejoin="round"/><path d="M16.15295 3.5403l-.80991-1.95526-.80991 1.95526z" stroke-miterlimit="10" stroke="#000" stroke-width=".529081" stroke-linecap="round" stroke-linejoin="round"/><text y="367.45023" x="198.47873" style="line-height:1.25" font-weight="400" font-size="10.583333" font-family="sans-serif" letter-spacing="0" word-spacing="0" stroke-width=".264583" transform="translate(-100.01593 -300.07595)"><tspan y="367.45023" x="198.47873" font-size="7.055555">x</tspan></text><text y="309.61984" x="100.29941" style="line-height:1.25" font-weight="400" font-size="10.583333" font-family="sans-serif" letter-spacing="0" word-spacing="0" stroke-width=".264583" transform="translate(-100.01593 -300.07595)"><tspan y="309.61984" x="100.29941" font-size="7.055555">p(x)</tspan></text></svg>