<svg xmlns="http://www.w3.org/2000/svg" viewBox="0 0 105.833 68.792"><path d="M15.343 61.07c.303-.03.606-.09.909-.12.303-.03.606-.089.909-.118.303-.03.606-.09.909-.15l.909-.178c.303-.06.606-.148.909-.238.303-.089.606-.148.909-.238l.909-.267c.303-.09.606-.209.909-.328.303-.119.606-.267.909-.386.303-.12.606-.268.909-.417.302-.149.605-.297.908-.476l.91-.535c.302-.179.605-.387.908-.595.303-.209.606-.417.91-.655l.908-.714c.303-.238.606-.535.91-.803.302-.268.605-.565.908-.863.303-.297.606-.595.91-.922.302-.327.605-.684.908-1.012.303-.327.606-.684.909-1.04.303-.358.606-.745.909-1.131l.909-1.16c.303-.387.606-.834.909-1.25.303-.417.606-.863.909-1.28.303-.416.606-.832.909-1.279l.909-1.338.909-1.34.909-1.338c.303-.446.605-.863.908-1.309.303-.446.606-.892.91-1.309l.908-1.25c.303-.416.606-.803.91-1.19.302-.386.605-.773.908-1.13.303-.357.606-.684.91-1.011.302-.328.605-.625.908-.923.303-.297.606-.565.91-.833a9.03 9.03 0 0 1 .908-.684c.303-.208.606-.387.909-.565.303-.179.606-.298.909-.417.303-.119.606-.208.909-.267.303-.06.606-.09.909-.12.303-.029.606 0 .909.03.303.03.606.12.909.209.303.089.606.178.909.327.303.149.606.327.909.506.303.178.606.387.909.625.303.238.605.476.908.743.303.268.606.566.91.893l.908.982c.303.327.606.684.91 1.07l.908 1.16c.303.388.606.804.91 1.22.302.417.605.833.908 1.28.303.446.606.862.91 1.309l.908 1.338c.303.447.606.863.909 1.31l.909 1.338.909 1.339c.303.446.606.863.909 1.28l.909 1.249c.303.416.606.803.909 1.19l.909 1.16c.303.387.606.744.909 1.1a31.274 31.274 0 0 0 1.818 1.994l.908.892a21.552 21.552 0 0 0 1.818 1.577c.303.238.606.476.91.684l.908.625c.303.208.606.387.91.565.302.179.605.357.908.506l.91.446c.302.15.605.298.908.417.303.119.606.208.909.327.303.12.606.238.909.327.303.09.606.15.909.238.303.09.606.15.909.238.303.09.606.15.909.209.303.06.606.089.909.148.303.06.606.09.909.15.303.059.606.088.909.118.303.03.606.09.909.12l.908.088c.303.03.606.03.91.06.302.03.605.06.908.06.303 0 .606 0 .91.03.302.029.605.029.908.059.303.03.606.03.91.03.302 0 .605.03.908.03h.91c.302 0 .605.029.908.029h.909c.303 0 .606.03.909.03h2.727c.303 0 .606 0 .909.03" stroke-miterlimit="10" fill="none" stroke="#000" stroke-width=".529" stroke-linecap="round" stroke-linejoin="round"/><path d="M15.343 61.575h64.535c.303 0 .606-.006.91-.032.302-.025.605-.077.908-.262.303-.186.606-.52.909-1.461.303-.942.606-2.5.909-5.537.303-3.043.606-7.567.909-13.68.303-6.12.606-13.821.909-20.8.303-6.977.606-13.23.909-15.839.303-2.608.606-1.57.909 2.589.303 4.158.606 11.431.909 18.64.303 7.208.606 14.34.909 19.722.303 5.383.606 9.01.909 11.374.303 2.364.606 3.467.909 4.127.303.66.606.871.908.986.303.116.606.141.91.154.302.013.605.02.908.02h10.908" stroke-miterlimit="10" fill="none" stroke="#000" stroke-width=".529" stroke-linecap="round" stroke-linejoin="round"/><path d="M15.343 61.575h64.535c.303 0 .606-.006.91-.032.302-.025.605-.077.908-.262.303-.186.606-.52.909-1.461.303-.942.606-2.5.909-5.537.303-3.043.606-7.567.909-13.68.303-6.12.606-13.821.909-20.8.303-6.977.606-13.23.909-15.839.303-2.608.606-1.57.909 2.589.303 4.158.606 11.431.909 18.64.303 7.208.606 14.34.909 19.722.303 5.383.606 9.01.909 11.374.303 2.364.606 3.467.909 4.127.303.66.606.871.908.986.303.116.606.141.91.154.302.013.605.02.908.02h10.908" stroke-miterlimit="10" fill="none" stroke="#000" stroke-width=".529" stroke-linecap="round" stroke-linejoin="round"/><path d="M15.343 61.07l.909-.107c.303-.036.606-.109.909-.145.303-.036.606-.108.909-.144.303-.036.606-.108.909-.18l.909-.216c.303-.072.606-.18.909-.253.303-.072.606-.144.909-.252l.909-.324a9.93 9.93 0 0 0 .909-.397l.909-.432c.302-.144.605-.289.908-.469l.91-.54c.302-.18.605-.36.908-.577l.91-.649c.302-.216.605-.468.908-.72.303-.253.606-.505.91-.794l.908-.865c.303-.288.606-.612.91-.937.302-.324.605-.685.908-1.01.303-.323.606-.684.909-1.044.303-.36.606-.757.909-1.118.303-.36.606-.757.909-1.153.303-.397.606-.829.909-1.262l.909-1.297c.303-.433.606-.83.909-1.262.303-.432.606-.9.909-1.333.303-.433.606-.901.909-1.334.303-.432.606-.9.909-1.333.303-.433.605-.901.908-1.334l.91-1.298c.302-.432.605-.865.908-1.261l.91-1.19c.302-.396.605-.756.908-1.117.303-.36.606-.685.91-1.009.302-.324.605-.649.908-.937.303-.288.606-.577.91-.83.302-.251.605-.468.908-.684.303-.216.606-.36.909-.54.303-.18.606-.325.909-.433.303-.108.606-.18.909-.252.303-.072.606-.108.909-.145.303-.036.606 0 .909.036.303.036.606.145.909.217.303.072.606.18.909.324.303.144.606.324.909.505.303.18.606.396.909.612.303.217.605.469.908.757.303.289.606.577.91.901l.908.974c.303.324.606.72.91 1.08.302.361.605.758.908 1.154.303.397.606.793.91 1.226.302.432.605.829.908 1.261l.91 1.298c.302.432.605.937.908 1.37l.909 1.297c.303.432.606.901.909 1.334.303.432.606.9.909 1.333l.909 1.298c.303.432.606.829.909 1.225l.909 1.19c.303.396.606.756.909 1.153.303.396.606.757.909 1.117.303.36.606.721.909 1.046.303.324.606.648.909.937.303.288.605.612.908.9.303.29.606.577.91.83l.908.757c.303.252.606.468.91.684.302.217.605.397.908.613.303.216.606.397.91.577.302.18.605.324.908.468.303.145.606.217.91.18.302-.035.605-.216.908-1.009.303-.793.606-2.234.909-5.118.303-2.883.606-7.208.909-13.155.303-5.947.606-13.48.909-20.257.303-6.776.606-12.83.909-15.318.303-2.487.606-1.406.909 2.74.303 4.144.606 11.353.909 18.49.303 7.136.606 14.236.909 19.57.303 5.335.606 8.94.909 11.318.303 2.38.606 3.497.909 4.181.303.685.606.901.908 1.046.303.144.606.18.91.216.302.036.605.072.908.072.303 0 .606 0 .91.036.302.036.605.036.908.072.303.036.606.036.91.036.302 0 .605.036.908.036h2.727c.303 0 .606.036.909.036h2.727c.303 0 .606 0 .909.036" stroke-miterlimit="10" fill="none" stroke="red" stroke-width=".529" stroke-linecap="round" stroke-linejoin="round"/><path d="M15.343 61.07l.909-.107c.303-.036.606-.109.909-.145.303-.036.606-.108.909-.144.303-.036.606-.108.909-.18l.909-.216c.303-.072.606-.18.909-.253.303-.072.606-.144.909-.252l.909-.324a9.93 9.93 0 0 0 .909-.397l.909-.432c.302-.144.605-.289.908-.469l.91-.54c.302-.18.605-.36.908-.577l.91-.649c.302-.216.605-.468.908-.72.303-.253.606-.505.91-.794l.908-.865c.303-.288.606-.612.91-.937.302-.324.605-.685.908-1.01.303-.323.606-.684.909-1.044.303-.36.606-.757.909-1.118.303-.36.606-.757.909-1.153.303-.397.606-.829.909-1.262l.909-1.297c.303-.433.606-.83.909-1.262.303-.432.606-.9.909-1.333.303-.433.606-.901.909-1.334.303-.432.606-.9.909-1.333.303-.433.605-.901.908-1.334l.91-1.298c.302-.432.605-.865.908-1.261l.91-1.19c.302-.396.605-.756.908-1.117.303-.36.606-.685.91-1.009.302-.324.605-.649.908-.937.303-.288.606-.577.91-.83.302-.251.605-.468.908-.684.303-.216.606-.36.909-.54.303-.18.606-.325.909-.433.303-.108.606-.18.909-.252.303-.072.606-.108.909-.145.303-.036.606 0 .909.036.303.036.606.145.909.217.303.072.606.18.909.324.303.144.606.324.909.505.303.18.606.396.909.612.303.217.605.469.908.757.303.289.606.577.91.901l.908.974c.303.324.606.72.91 1.08.302.361.605.758.908 1.154.303.397.606.793.91 1.226.302.432.605.829.908 1.261l.91 1.298c.302.432.605.937.908 1.37l.909 1.297c.303.432.606.901.909 1.334.303.432.606.9.909 1.333l.909 1.298c.303.432.606.829.909 1.225l.909 1.19c.303.396.606.756.909 1.153.303.396.606.757.909 1.117.303.36.606.721.909 1.046.303.324.606.648.909.937.303.288.605.612.908.9.303.29.606.577.91.83l.908.757c.303.252.606.468.91.684.302.217.605.397.908.613.303.216.606.397.91.577.302.18.605.324.908.468.303.145.606.217.91.18.302-.035.605-.216.908-1.009.303-.793.606-2.234.909-5.118.303-2.883.606-7.208.909-13.155.303-5.947.606-13.48.909-20.257.303-6.776.606-12.83.909-15.318.303-2.487.606-1.406.909 2.74.303 4.144.606 11.353.909 18.49.303 7.136.606 14.236.909 19.57.303 5.335.606 8.94.909 11.318.303 2.38.606 3.497.909 4.181.303.685.606.901.908 1.046.303.144.606.18.91.216.302.036.605.072.908.072.303 0 .606 0 .91.036.302.036.605.036.908.072.303.036.606.036.91.036.302 0 .605.036.908.036h2.727c.303 0 .606.036.909.036h2.727c.303 0 .606 0 .909.036" stroke-miterlimit="10" fill="none" stroke="red" stroke-width=".529" stroke-linecap="round" stroke-linejoin="round"/><path d="M15.343 61.575h89.985" stroke-miterlimit="10" fill="none" stroke="#000" stroke-width=".529" stroke-linecap="round" stroke-linejoin="round"/><path d="M103.374 62.385l1.954-.81-1.954-.81z" stroke-miterlimit="10" stroke="#000" stroke-width=".529" stroke-linecap="round" stroke-linejoin="round"/><path d="M15.343 61.575V1.585" stroke-miterlimit="10" fill="none" stroke="#000" stroke-width=".529" stroke-linecap="round" stroke-linejoin="round"/><path d="M16.153 3.54l-.81-1.955-.81 1.955z" stroke-miterlimit="10" stroke="#000" stroke-width=".529" stroke-linecap="round" stroke-linejoin="round"/><text y="367.45" x="198.479" style="line-height:1.25" font-weight="400" font-size="10.583" font-family="sans-serif" letter-spacing="0" word-spacing="0" stroke-width=".265" transform="translate(-100.016 -300.076)"><tspan y="367.45" x="198.479" font-size="7.056">x</tspan></text><text y="309.62" x="100.299" style="line-height:1.25" font-weight="400" font-size="10.583" font-family="sans-serif" letter-spacing="0" word-spacing="0" stroke-width=".265" transform="translate(-100.016 -300.076)"><tspan y="309.62" x="100.299" font-size="7.056">p(x)</tspan></text></svg>