<?xml version="1.0" ?><svg enable-background="new 0 0 56.693 56.693" height="500" id="Layer_1" version="1.1" viewBox="0 0 499.99999 499.99999" width="500" xml:space="preserve" xmlns="http://www.w3.org/2000/svg" xmlns:cc="http://creativecommons.org/ns#" xmlns:dc="http://purl.org/dc/elements/1.1/" xmlns:inkscape="http://www.inkscape.org/namespaces/inkscape" xmlns:rdf="http://www.w3.org/1999/02/22-rdf-syntax-ns#" xmlns:sodipodi="http://sodipodi.sourceforge.net/DTD/sodipodi-0.dtd" xmlns:svg="http://www.w3.org/2000/svg"><defs id="defs7"/><path d="M 50,0 C 22.3,0 0,22.3 0,50 l 0,400 c 0,27.7 22.3,50 50,50 l 400,0 c 27.7,0 50,-22.3 50,-50 L 500,50 C 500,22.3 477.7,0 450,0 L 50,0 z m 240.84375,159.96875 c 43.49696,0 79.14015,33.35068 82.90625,75.875 5.61026,-2.34215 11.7916,-3.65625 18.25,-3.65625 26.05927,0 47.1875,21.09699 47.1875,47.15625 0,26.05927 -21.12045,47.1875 -47.1875,47.1875 -0.84037,0 -130.65674,-0.0469 -130.78125,-0.0625 -2.81679,-0.29568 -5.06265,-2.69902 -5.09375,-5.5625 l 0,-149.75 c 0.0311,-2.76233 0.95968,-4.15398 4.53125,-5.53125 9.15848,-3.54823 19.53503,-5.65625 30.1875,-5.65625 z M 246.46875,171 c 2.83237,0 5.1486,2.3318 5.1875,5.1875 l 2.3125,106.28125 -2.3125,38.5625 c -0.0467,2.84014 -2.36292,5.15625 -5.1875,5.15625 -2.82458,0 -5.1408,-2.31598 -5.1875,-5.125 l -2.125,-38.59375 2.125,-106.28125 c 0.0467,-2.8557 2.36292,-5.1875 5.1875,-5.1875 z m -16.59375,9.1875 c 0.16124,-0.0165 0.3034,0 0.46875,0 2.63783,0 4.8205,2.16701 4.875,4.84375 l 2.0625,97.4375 -2.0625,39.125 0,0.0312 c -0.0711,2.662 -2.24771,4.8125 -4.875,4.8125 -2.64561,0 -4.79705,-2.19814 -4.84375,-4.84375 0,0 -1.84375,-39.07845 -1.84375,-39.15625 L 225.5,185.03125 c 0.0438,-2.50944 1.9564,-4.59544 4.375,-4.84375 z m -47.6875,11.1875 c 2.11649,0 3.805,1.67279 3.875,3.84375 l 2.75,87.21875 -2.75,40.03125 c -0.07,2.15539 -1.75851,3.84375 -3.875,3.84375 -2.1087,0 -3.83625,-1.69615 -3.90625,-3.84375 l -2.40625,-40.03125 2.40625,-87.21875 c 0.07,-2.17096 1.79755,-3.84375 3.90625,-3.84375 z m 15.9375,1.875 c 2.29546,0 4.15655,1.84536 4.21875,4.1875 l 2.46875,85 -2.46875,39.65625 0,0.0312 c -0.0781,2.32709 -1.93369,4.15625 -4.21875,4.15625 -2.31101,0 -4.17205,-1.86092 -4.21875,-4.1875 l -2.21875,-39.65625 2.21875,-85 c 0.0545,-2.34214 1.90774,-4.1875 4.21875,-4.1875 z m -31.75,1.28125 c 1.91418,0 3.4847,1.53926 3.5625,3.53125 l 2.9375,84.375 -2.9375,40.28125 0,0.0312 c -0.0932,1.96129 -1.65855,3.5 -3.5625,3.5 -1.93752,0 -3.5002,-1.57038 -3.5625,-3.53125 l -2.625,-40.28125 2.625,-84.375 c 0.07,-1.99194 1.62498,-3.5312 3.5625,-3.5312 z m 47.8125,1.5 c 2.48221,0 4.46905,2.01014 4.53125,4.53125 l 2.28125,81.875 -2.28125,39.375 c -0.0623,2.53668 -2.04904,4.53125 -4.53125,4.53125 -2.49777,0 -4.48455,-1.97876 -4.53125,-4.46875 l -2.0625,-39.4375 2.03125,-81.875 c 0.0545,-2.53668 2.06473,-4.53125 4.5625,-4.53125 z m -63.5,5.3125 c 1.7352,0 3.1644,1.41351 3.25,3.21875 l 3.15625,77.875 -3.15625,40.6875 0,0.0312 c -0.10058,1.77487 -1.53265,3.15625 -3.25,3.15625 -1.72743,0 -3.14095,-1.41339 -3.21875,-3.1875 l -2.8125,-40.6875 2.8125,-77.875 c 0.0778,-1.80524 1.48354,-3.21875 3.21875,-3.21875 z m -15.5625,14.8125 c 1.54068,0 2.82065,1.26429 2.90625,2.875 l 3.40625,63.375 -3.40625,40.96875 c -0.0856,1.61071 -1.36557,2.875 -2.90625,2.875 -1.54846,0 -2.82065,-1.27985 -2.90625,-2.875 l -3,-40.96875 3,-63.375 c 0.0856,-1.61071 1.35779,-2.875 2.90625,-2.875 z m -30.75,22.03125 c 1.16718,0 2.14106,0.94263 2.25,2.21875 l 3.84375,42 -3.84375,40.625 c -0.10894,1.26055 -1.08282,2.1875 -2.25,2.1875 -1.19831,0 -2.1566,-0.92695 -2.25,-2.1875 l -3.40625,-40.625 3.40625,-42 c 0.0934,-1.27612 1.05948,-2.21875 2.25,-2.21875 z m -15.1875,1.46875 c 0.996,0 1.78175,0.77785 1.90625,1.875 l 4.0625,40.875 -4.0625,39.40625 c -0.11672,1.0738 -0.91025,1.84375 -1.90625,1.84375 -1.01156,0 -1.83634,-0.77785 -1.9375,-1.875 l -3.5625,-39.375 c 0,0 3.5625,-40.8595 3.5625,-40.875 0.10116,-1.08937 0.92594,-1.875 1.9375,-1.875 z m 30.5,1.25 c 1.36949,0 2.50035,1.08394 2.59375,2.53125 l 3.625,38.96875 -3.625,40.9375 0,0.0312 c -0.11461,1.43938 -1.23403,2.53125 -2.59375,2.53125 -1.39284,0 -2.4769,-1.09963 -2.5625,-2.5625 l -3.21875,-40.9375 3.21875,-38.96875 c 0.0856,-1.43953 1.17744,-2.53125 2.5625,-2.53125 z m -45.59375,5.5 c 0.80925,0 1.49272,0.62085 1.625,1.53125 L 80,282.40625 l -4.28125,33.6875 c -0.13228,0.9104 -0.7845,1.53125 -1.59375,1.53125 -0.80924,0 -1.50828,-0.63641 -1.625,-1.53125 l -3.78125,-33.6875 c 0,0 3.78125,-34.45315 3.78125,-34.46875 0.11672,-0.87928 0.78451,-1.53125 1.59375,-1.53125 z m -14.15625,13.1875 c 0.77812,0 1.41453,0.62073 1.53125,1.5 l 3.3125,21.3125 -3.3125,20.9375 c -0.1245,0.86372 -0.75313,1.5 -1.53125,1.5 -0.79368,0 -1.45356,-0.62072 -1.5625,-1.5 l -2.78125,-20.9375 2.78125,-21.3125 c 0.10894,-0.87927 0.76103,-1.5 1.5625,-1.5 z" id="rect2986" style="fill:#000000;fill-opacity:1;stroke:none"/></svg>